<?xml version="1.0" encoding="utf-8"?>
<!-- Generator: Adobe Illustrator 25.3.0, SVG Export Plug-In . SVG Version: 6.00 Build 0)  -->
<svg version="1.1" id="Layer_1" xmlns="http://www.w3.org/2000/svg" xmlns:xlink="http://www.w3.org/1999/xlink" x="0px" y="0px"
	 viewBox="0 0 140 28" style="enable-background:new 0 0 140 28;" xml:space="preserve">
<style type="text/css">
	.st0{fill:#010101;}
</style>
<g>
	<polygon class="st0" points="15.61,16.46 10.05,5.26 10.01,5.21 6.29,5.21 6.29,22.74 9.36,22.74 9.36,10.35 14.55,20.95 
		16.62,20.95 21.85,10.35 21.85,22.74 24.83,22.74 24.83,5.21 21.16,5.21 	"/>
	<rect x="29.1" y="5.21" class="st0" width="3.21" height="17.58"/>
	<path class="st0" d="M50.81,11.22c0-3.86-2.57-6.06-7.11-6.06h-7.16v17.58h3.21v-5.19h3.95c0.23,0,0.46,0,0.69,0l3.17,5.23h3.67
		l-3.95-5.83C49.57,15.95,50.81,13.93,50.81,11.22z M39.75,8.1h3.95c2.66,0,4.04,1.06,4.04,3.21c0,2.75-2.2,3.3-4.04,3.3h-3.95V8.1z
		"/>
	<path class="st0" d="M59.81,5.21l-7.67,17.3l-0.09,0.23h3.35l1.65-3.9h8.49l1.65,3.9h3.44L62.98,5.16h-3.17V5.21z M64.31,15.95
		h-6.06l3.03-7.11L64.31,15.95z"/>
	<rect x="109.06" y="5.21" class="st0" width="3.21" height="17.58"/>
	<path class="st0" d="M124.39,5.12c-5.28,0-9.32,3.81-9.32,8.86c0,5,4.09,8.9,9.32,8.9c5.23,0,9.32-3.9,9.32-8.9
		C133.67,9.02,129.58,5.12,124.39,5.12z M124.39,19.94c-3.35,0-6.06-2.66-6.06-5.97c0-3.26,2.71-5.92,6.06-5.92
		c3.35,0,5.97,2.62,5.97,5.92S127.7,19.94,124.39,19.94z"/>
	<path class="st0" d="M80.1,8.01c1.74,0,3.58,0.73,4.87,1.93l0.14,0.09l1.84-2.39l-0.09-0.09c-1.74-1.51-4.27-2.43-6.75-2.43
		c-5.37,0-9.41,3.81-9.41,8.86c0,5,4.04,8.9,9.23,8.9c2.34,0,4.96-0.87,6.79-2.3l0.05-0.05v-7.11h-6.24v2.85h3.4v2.57
		c-1.19,0.69-2.62,1.1-3.81,1.1c-3.44,0-6.15-2.62-6.15-5.97C73.95,10.63,76.66,8.01,80.1,8.01z"/>
	<path class="st0" d="M98.55,8.01c1.74,0,3.58,0.73,4.87,1.93l0.14,0.09l1.84-2.39l-0.09-0.09c-1.74-1.51-4.27-2.43-6.75-2.43
		c-5.37,0-9.41,3.81-9.41,8.86c0,5,4.04,8.9,9.23,8.9c2.34,0,4.96-0.87,6.79-2.3l0.05-0.05v-7.11h-6.24v2.85h3.4v2.57
		c-1.19,0.69-2.62,1.1-3.81,1.1c-3.44,0-6.15-2.62-6.15-5.97C92.45,10.63,95.11,8.01,98.55,8.01z"/>
</g>
</svg>
